<mxfile host="Electron" agent="Mozilla/5.0 (X11; Linux x86_64) AppleWebKit/537.36 (KHTML, like Gecko) draw.io/26.0.16 Chrome/132.0.6834.196 Electron/34.2.0 Safari/537.36" version="26.0.16">
  <diagram name="Page-1" id="v21pWP7KFlC49By7MYeK">
    <mxGraphModel dx="733" dy="443" grid="1" gridSize="10" guides="1" tooltips="1" connect="1" arrows="1" fold="1" page="1" pageScale="1" pageWidth="850" pageHeight="1100" math="0" shadow="0">
      <root>
        <mxCell id="0" />
        <mxCell id="1" parent="0" />
        <mxCell id="8iivArCEx1H5-otgk7mG-1" value="&lt;font&gt;To-Do App&lt;/font&gt;" style="text;html=1;align=center;verticalAlign=middle;whiteSpace=wrap;rounded=0;fontStyle=1;fontSize=30;labelBorderColor=none;labelBackgroundColor=none;fontColor=#999999;" parent="1" vertex="1">
          <mxGeometry x="285" y="10" width="230" height="50" as="geometry" />
        </mxCell>
        <mxCell id="8iivArCEx1H5-otgk7mG-5" value="Task" style="swimlane;fontStyle=0;childLayout=stackLayout;horizontal=1;startSize=30;horizontalStack=0;resizeParent=1;resizeParentMax=0;resizeLast=0;collapsible=1;marginBottom=0;whiteSpace=wrap;html=1;fontSize=20;fillColor=#d5e8d4;strokeColor=#82b366;" parent="1" vertex="1">
          <mxGeometry x="480" y="600" width="100" height="150" as="geometry" />
        </mxCell>
        <mxCell id="8iivArCEx1H5-otgk7mG-6" value="-Title" style="text;align=left;verticalAlign=middle;spacingLeft=4;spacingRight=4;overflow=hidden;points=[[0,0.5],[1,0.5]];portConstraint=eastwest;rotatable=0;whiteSpace=wrap;html=1;fontSize=14;labelBackgroundColor=none;fillColor=default;" parent="8iivArCEx1H5-otgk7mG-5" vertex="1">
          <mxGeometry y="30" width="100" height="20" as="geometry" />
        </mxCell>
        <mxCell id="8iivArCEx1H5-otgk7mG-7" value="-Description" style="text;align=left;verticalAlign=middle;spacingLeft=4;spacingRight=4;overflow=hidden;points=[[0,0.5],[1,0.5]];portConstraint=eastwest;rotatable=0;whiteSpace=wrap;html=1;fontSize=14;fillColor=default;" parent="8iivArCEx1H5-otgk7mG-5" vertex="1">
          <mxGeometry y="50" width="100" height="20" as="geometry" />
        </mxCell>
        <mxCell id="8iivArCEx1H5-otgk7mG-26" value="-Status" style="text;align=left;verticalAlign=middle;spacingLeft=4;spacingRight=4;overflow=hidden;points=[[0,0.5],[1,0.5]];portConstraint=eastwest;rotatable=0;whiteSpace=wrap;html=1;fontSize=14;fillColor=default;" parent="8iivArCEx1H5-otgk7mG-5" vertex="1">
          <mxGeometry y="70" width="100" height="20" as="geometry" />
        </mxCell>
        <mxCell id="8iivArCEx1H5-otgk7mG-8" value="-Priority" style="text;align=left;verticalAlign=middle;spacingLeft=4;spacingRight=4;overflow=hidden;points=[[0,0.5],[1,0.5]];portConstraint=eastwest;rotatable=0;whiteSpace=wrap;html=1;fontSize=14;fillColor=default;" parent="8iivArCEx1H5-otgk7mG-5" vertex="1">
          <mxGeometry y="90" width="100" height="20" as="geometry" />
        </mxCell>
        <mxCell id="8iivArCEx1H5-otgk7mG-9" value="-Due-date" style="text;align=left;verticalAlign=middle;spacingLeft=4;spacingRight=4;overflow=hidden;points=[[0,0.5],[1,0.5]];portConstraint=eastwest;rotatable=0;whiteSpace=wrap;html=1;fontSize=14;fillColor=default;" parent="8iivArCEx1H5-otgk7mG-5" vertex="1">
          <mxGeometry y="110" width="100" height="20" as="geometry" />
        </mxCell>
        <mxCell id="8iivArCEx1H5-otgk7mG-10" value="-Dependency" style="text;align=left;verticalAlign=middle;spacingLeft=4;spacingRight=4;overflow=hidden;points=[[0,0.5],[1,0.5]];portConstraint=eastwest;rotatable=0;whiteSpace=wrap;html=1;fontSize=14;fillColor=default;" parent="8iivArCEx1H5-otgk7mG-5" vertex="1">
          <mxGeometry y="130" width="100" height="20" as="geometry" />
        </mxCell>
        <mxCell id="8iivArCEx1H5-otgk7mG-11" value="Create" style="rounded=0;whiteSpace=wrap;html=1;fillColor=#d5e8d4;strokeColor=#82b366;" parent="1" vertex="1">
          <mxGeometry x="40" y="110" width="80" height="20" as="geometry" />
        </mxCell>
        <mxCell id="8iivArCEx1H5-otgk7mG-13" value="Update" style="rounded=0;whiteSpace=wrap;html=1;fillColor=#ffe6cc;strokeColor=#d79b00;" parent="1" vertex="1">
          <mxGeometry x="720" y="190" width="80" height="20" as="geometry" />
        </mxCell>
        <mxCell id="8iivArCEx1H5-otgk7mG-15" value="Delete" style="rounded=0;whiteSpace=wrap;html=1;fillColor=#f8cecc;strokeColor=#b85450;" parent="1" vertex="1">
          <mxGeometry x="720" y="150" width="80" height="20" as="geometry" />
        </mxCell>
        <mxCell id="8iivArCEx1H5-otgk7mG-18" value="Consult&amp;nbsp;&lt;span style=&quot;background-color: transparent; color: light-dark(rgb(0, 0, 0), rgb(255, 255, 255));&quot;&gt;ALL&lt;/span&gt;" style="rounded=0;whiteSpace=wrap;html=1;fillColor=#e1d5e7;strokeColor=#9673a6;" parent="1" vertex="1">
          <mxGeometry x="40" y="190" width="80" height="20" as="geometry" />
        </mxCell>
        <mxCell id="8iivArCEx1H5-otgk7mG-23" value="Sort by" style="shape=process;whiteSpace=wrap;html=1;backgroundOutline=1;fillColor=#f5f5f5;strokeColor=#666666;fontColor=#333333;" parent="1" vertex="1">
          <mxGeometry x="120" y="310" width="120" height="30" as="geometry" />
        </mxCell>
        <mxCell id="8iivArCEx1H5-otgk7mG-24" value="Best sequence" style="shape=process;whiteSpace=wrap;html=1;backgroundOutline=1;fillColor=#f5f5f5;fontColor=#333333;strokeColor=#666666;" parent="1" vertex="1">
          <mxGeometry x="120" y="355" width="120" height="30" as="geometry" />
        </mxCell>
        <mxCell id="8iivArCEx1H5-otgk7mG-25" value="Sequence dependency" style="shape=process;whiteSpace=wrap;html=1;backgroundOutline=1;fillColor=#f5f5f5;fontColor=#333333;strokeColor=#666666;" parent="1" vertex="1">
          <mxGeometry x="120" y="400" width="120" height="30" as="geometry" />
        </mxCell>
        <mxCell id="28XymwbxXhF13JRxio-2-31" style="edgeStyle=orthogonalEdgeStyle;rounded=0;orthogonalLoop=1;jettySize=auto;html=1;exitX=0.75;exitY=0;exitDx=0;exitDy=0;entryX=0.75;entryY=1;entryDx=0;entryDy=0;strokeColor=#999999;" parent="1" source="28XymwbxXhF13JRxio-2-1" target="28XymwbxXhF13JRxio-2-2" edge="1">
          <mxGeometry relative="1" as="geometry" />
        </mxCell>
        <mxCell id="28XymwbxXhF13JRxio-2-1" value="Model" style="rounded=0;whiteSpace=wrap;html=1;fontSize=20;fillColor=#f8cecc;gradientColor=#ea6b66;strokeColor=#b85450;" parent="1" vertex="1">
          <mxGeometry x="320" y="500" width="160" height="60" as="geometry" />
        </mxCell>
        <mxCell id="28XymwbxXhF13JRxio-2-9" style="edgeStyle=orthogonalEdgeStyle;rounded=0;orthogonalLoop=1;jettySize=auto;html=1;exitX=0;exitY=0.75;exitDx=0;exitDy=0;startArrow=classic;startFill=1;strokeColor=#999999;" parent="1" source="28XymwbxXhF13JRxio-2-2" target="8iivArCEx1H5-otgk7mG-25" edge="1">
          <mxGeometry relative="1" as="geometry" />
        </mxCell>
        <mxCell id="28XymwbxXhF13JRxio-2-10" style="edgeStyle=orthogonalEdgeStyle;rounded=0;orthogonalLoop=1;jettySize=auto;html=1;exitX=0;exitY=0.5;exitDx=0;exitDy=0;entryX=1;entryY=0.5;entryDx=0;entryDy=0;startArrow=classic;startFill=1;strokeColor=#999999;" parent="1" source="28XymwbxXhF13JRxio-2-2" target="8iivArCEx1H5-otgk7mG-24" edge="1">
          <mxGeometry relative="1" as="geometry" />
        </mxCell>
        <mxCell id="28XymwbxXhF13JRxio-2-13" style="edgeStyle=orthogonalEdgeStyle;rounded=0;orthogonalLoop=1;jettySize=auto;html=1;exitX=0;exitY=0.25;exitDx=0;exitDy=0;entryX=1;entryY=0.5;entryDx=0;entryDy=0;startArrow=classic;startFill=1;strokeColor=#999999;" parent="1" source="28XymwbxXhF13JRxio-2-2" target="8iivArCEx1H5-otgk7mG-23" edge="1">
          <mxGeometry relative="1" as="geometry" />
        </mxCell>
        <mxCell id="28XymwbxXhF13JRxio-2-29" style="edgeStyle=orthogonalEdgeStyle;rounded=0;orthogonalLoop=1;jettySize=auto;html=1;exitX=0.75;exitY=0;exitDx=0;exitDy=0;entryX=0.75;entryY=1;entryDx=0;entryDy=0;strokeColor=#999999;" parent="1" source="28XymwbxXhF13JRxio-2-2" target="28XymwbxXhF13JRxio-2-3" edge="1">
          <mxGeometry relative="1" as="geometry" />
        </mxCell>
        <mxCell id="28XymwbxXhF13JRxio-2-30" style="edgeStyle=orthogonalEdgeStyle;rounded=0;orthogonalLoop=1;jettySize=auto;html=1;exitX=0.25;exitY=1;exitDx=0;exitDy=0;entryX=0.25;entryY=0;entryDx=0;entryDy=0;strokeColor=#999999;" parent="1" source="28XymwbxXhF13JRxio-2-2" target="28XymwbxXhF13JRxio-2-1" edge="1">
          <mxGeometry relative="1" as="geometry" />
        </mxCell>
        <mxCell id="28XymwbxXhF13JRxio-2-2" value="Service" style="rounded=0;whiteSpace=wrap;html=1;fontSize=20;fillColor=#fff2cc;gradientColor=#ffd966;strokeColor=#d6b656;" parent="1" vertex="1">
          <mxGeometry x="320" y="280" width="160" height="180" as="geometry" />
        </mxCell>
        <mxCell id="28XymwbxXhF13JRxio-2-28" style="edgeStyle=orthogonalEdgeStyle;rounded=0;orthogonalLoop=1;jettySize=auto;html=1;exitX=0.25;exitY=1;exitDx=0;exitDy=0;entryX=0.25;entryY=0;entryDx=0;entryDy=0;strokeColor=#999999;" parent="1" source="28XymwbxXhF13JRxio-2-3" target="28XymwbxXhF13JRxio-2-2" edge="1">
          <mxGeometry relative="1" as="geometry" />
        </mxCell>
        <mxCell id="28XymwbxXhF13JRxio-2-3" value="Controller" style="rounded=0;whiteSpace=wrap;html=1;fontSize=20;fillColor=#d5e8d4;strokeColor=#82b366;gradientColor=#97d077;" parent="1" vertex="1">
          <mxGeometry x="320" y="80" width="160" height="160" as="geometry" />
        </mxCell>
        <mxCell id="28XymwbxXhF13JRxio-2-4" value="&amp;nbsp;POST /api/tasks&amp;nbsp;" style="endArrow=classic;html=1;rounded=0;labelBorderColor=default;fontSize=16;entryX=0;entryY=0.25;entryDx=0;entryDy=0;strokeColor=#999999;" parent="1" target="28XymwbxXhF13JRxio-2-3" edge="1">
          <mxGeometry width="50" height="50" relative="1" as="geometry">
            <mxPoint x="120" y="120" as="sourcePoint" />
            <mxPoint x="320" y="140" as="targetPoint" />
          </mxGeometry>
        </mxCell>
        <mxCell id="28XymwbxXhF13JRxio-2-14" value="&amp;nbsp;GET /api/tasks&amp;nbsp;" style="endArrow=classic;html=1;rounded=0;labelBorderColor=default;fontSize=16;entryX=0;entryY=0.75;entryDx=0;entryDy=0;strokeColor=#999999;" parent="1" target="28XymwbxXhF13JRxio-2-3" edge="1">
          <mxGeometry width="50" height="50" relative="1" as="geometry">
            <mxPoint x="120" y="200" as="sourcePoint" />
            <mxPoint x="269" y="190.5" as="targetPoint" />
          </mxGeometry>
        </mxCell>
        <mxCell id="28XymwbxXhF13JRxio-2-15" value="&amp;nbsp;DELETE /api/tasks/t1&amp;nbsp;" style="endArrow=classic;html=1;rounded=0;labelBorderColor=default;fontSize=16;entryX=1;entryY=0.5;entryDx=0;entryDy=0;strokeColor=#999999;" parent="1" target="28XymwbxXhF13JRxio-2-3" edge="1">
          <mxGeometry width="50" height="50" relative="1" as="geometry">
            <mxPoint x="720" y="160" as="sourcePoint" />
            <mxPoint x="520" y="240" as="targetPoint" />
            <mxPoint as="offset" />
          </mxGeometry>
        </mxCell>
        <mxCell id="28XymwbxXhF13JRxio-2-16" value="&amp;nbsp;PUT /api/tasks/t1&amp;nbsp;" style="endArrow=classic;html=1;rounded=0;labelBorderColor=default;fontSize=16;entryX=1;entryY=0.75;entryDx=0;entryDy=0;strokeColor=#999999;" parent="1" target="28XymwbxXhF13JRxio-2-3" edge="1">
          <mxGeometry width="50" height="50" relative="1" as="geometry">
            <mxPoint x="720" y="200" as="sourcePoint" />
            <mxPoint x="520" y="280" as="targetPoint" />
          </mxGeometry>
        </mxCell>
        <mxCell id="28XymwbxXhF13JRxio-2-17" value="&amp;nbsp;GET /api/tasks/t1&amp;nbsp;" style="endArrow=classic;html=1;rounded=0;labelBorderColor=default;fontSize=16;entryX=1;entryY=0.25;entryDx=0;entryDy=0;strokeColor=#999999;" parent="1" target="28XymwbxXhF13JRxio-2-3" edge="1">
          <mxGeometry width="50" height="50" relative="1" as="geometry">
            <mxPoint x="720" y="120" as="sourcePoint" />
            <mxPoint x="545" y="110" as="targetPoint" />
          </mxGeometry>
        </mxCell>
        <mxCell id="28XymwbxXhF13JRxio-2-18" value="Consult" style="rounded=0;whiteSpace=wrap;html=1;fillColor=#e1d5e7;strokeColor=#9673a6;" parent="1" vertex="1">
          <mxGeometry x="720" y="110" width="80" height="20" as="geometry" />
        </mxCell>
        <mxCell id="28XymwbxXhF13JRxio-2-33" style="edgeStyle=orthogonalEdgeStyle;rounded=0;orthogonalLoop=1;jettySize=auto;html=1;exitX=0.855;exitY=0;exitDx=0;exitDy=4.35;exitPerimeter=0;entryX=0.75;entryY=1;entryDx=0;entryDy=0;strokeColor=#999999;" parent="1" source="28XymwbxXhF13JRxio-2-19" target="28XymwbxXhF13JRxio-2-1" edge="1">
          <mxGeometry relative="1" as="geometry" />
        </mxCell>
        <mxCell id="28XymwbxXhF13JRxio-2-19" value="PostgreSQL" style="shape=cylinder3;whiteSpace=wrap;html=1;boundedLbl=1;backgroundOutline=1;size=15;fillColor=#dae8fc;gradientColor=#7ea6e0;strokeColor=#6c8ebf;fontSize=20;" parent="1" vertex="1">
          <mxGeometry x="342.5" y="600" width="115" height="100" as="geometry" />
        </mxCell>
        <mxCell id="28XymwbxXhF13JRxio-2-32" style="edgeStyle=orthogonalEdgeStyle;rounded=0;orthogonalLoop=1;jettySize=auto;html=1;exitX=0.25;exitY=1;exitDx=0;exitDy=0;entryX=0.145;entryY=0;entryDx=0;entryDy=4.35;entryPerimeter=0;strokeColor=#999999;" parent="1" source="28XymwbxXhF13JRxio-2-1" target="28XymwbxXhF13JRxio-2-19" edge="1">
          <mxGeometry relative="1" as="geometry" />
        </mxCell>
      </root>
    </mxGraphModel>
  </diagram>
</mxfile>
